<svg xmlns="http://www.w3.org/2000/svg" width="44.174" height="39.153" viewBox="0 0 44.174 39.153"><path d="M1,51.318,22.086,36.366l21.19,14.952ZM0,73.136H3.263V70.859h.474V69.774H5.12V56.75H2.295V53.63H41.879v3.12H39.054V69.774h1.383v1.086h.474v2.276h3.263v2.384H0Zm11.714-2.276h1.6V69.774h1.383V56.75H10.331V69.774h1.383v1.086Zm9.574,0h1.6V69.774h1.382V56.75H19.906V69.774h1.383Zm9.572,0h1.6V69.774h1.383V56.75H29.478V69.774h1.383ZM14.987,47.545l7.134-5.472,7.172,5.472H14.987Z" transform="translate(0 -36.366)" fill="#6b30ff" fill-rule="evenodd"/></svg>