<svg xmlns="http://www.w3.org/2000/svg" xmlns:xlink="http://www.w3.org/1999/xlink" width="17.405" height="15.566" viewBox="0 0 17.405 15.566"><defs><filter id="a" x="0" y="0" width="17.405" height="15.566" filterUnits="userSpaceOnUse"><feOffset dy="2" input="SourceAlpha"/><feGaussianBlur stdDeviation="1" result="b"/><feFlood flood-opacity="0.161"/><feComposite operator="in" in2="b"/><feComposite in="SourceGraphic"/></filter></defs><g transform="matrix(1, 0, 0, 1, 0, 0)" filter="url(#a)"><path d="M.359,62.194A1.216,1.216,0,0,1,2.043,60.44l2.09,2.011,4.16-5.285.149.114-.149-.114a.188.188,0,0,1,.041-.039,1.212,1.212,0,0,1,.862-.295H9.21a1.216,1.216,0,0,1,1.133,1.28h0v.015a1.211,1.211,0,0,1-.389.812L4.96,65.017h0a.185.185,0,0,1-.031.031,1.217,1.217,0,0,1-1.644-.037L.359,62.194Z" transform="translate(3.51 -55.28)" fill="#fff" stroke="#6b30ff" stroke-width="1"/></g></svg>