<svg xmlns="http://www.w3.org/2000/svg" width="200" height="54" viewBox="0 0 200 54"><g transform="translate(-4 11.544)"><g transform="translate(4 -6.231)"><text transform="translate(0 38.687)" fill="#6b30ff" font-size="41" font-family="SegoeUI-Bold, Segoe UI" font-weight="700" letter-spacing="-0.08em"><tspan x="0" y="0">Master</tspan></text><path d="M309,7.22h14.167a7.084,7.084,0,0,1,7.084,7.084V26.11H309V7.22Z" transform="translate(-130.251 0.74)" fill="#ffb922"/><path d="M309,39.22h21.251V51.026a7.084,7.084,0,0,1-7.084,7.084H309Z" transform="translate(-130.251 -12.37)" fill="#ffd528"/><path d="M293,7.22h14.168a7.084,7.084,0,0,1,7.084,7.084V26.11H293V7.22Z" transform="translate(-123.696 0.74)" fill="#ff7e16"/><path d="M293,39.22h21.251V51.026a7.084,7.084,0,0,1-7.084,7.084H293Z" transform="translate(-123.696 -12.37)" fill="#ff9d1b"/><rect width="63.754" height="37.78" rx="12" transform="translate(119.718 7.96)" fill="#6b30ff"/><text transform="translate(132.262 33.182)" fill="#fff" font-size="25" font-family="SegoeUI-Bold, Segoe UI" font-weight="700" letter-spacing="-0.06em"><tspan x="0" y="0">pay</tspan></text></g></g></svg>