<svg id="download_2_" data-name="download (2)" xmlns="http://www.w3.org/2000/svg" width="125.073" height="125.073" viewBox="0 0 125.073 125.073">
  <path id="Path_12221" data-name="Path 12221" d="M0,125.073V0H125.073V125.073Z" fill="none"/>
  <g id="Group_2548" data-name="Group 2548" transform="translate(20.849 8.338)">
    <path id="Path_12222" data-name="Path 12222" d="M70.359,11.467A4.56,4.56,0,0,0,66.41,13.7L64.675,16.6a5.622,5.622,0,0,1-3.4,2.475c-.017,0-.032.012-.049.016a5.577,5.577,0,0,1-4.218-.44l-2.956-1.645a4.6,4.6,0,0,0-6.84,3.949L47.152,24.4a5.583,5.583,0,0,1-1.694,3.827.121.121,0,0,0-.033.033A5.556,5.556,0,0,1,41.6,29.951l-3.436.057a4.61,4.61,0,0,0-3.949,6.848l1.653,2.972a5.555,5.555,0,0,1,.44,4.185.5.5,0,0,0-.024.073,5.59,5.59,0,0,1-2.459,3.371l-2.915,1.751a4.606,4.606,0,0,0,0,7.9l2.915,1.751a5.574,5.574,0,0,1,2.459,3.371c.008.025.008.052.016.081a5.55,5.55,0,0,1-.432,4.185l-1.653,2.972a4.6,4.6,0,0,0,3.949,6.84l3.436.057a5.575,5.575,0,0,1,3.827,1.7l.033.033a5.556,5.556,0,0,1,1.694,3.827l.057,3.428a4.616,4.616,0,0,0,6.848,3.957l2.972-1.653a5.555,5.555,0,0,1,4.185-.44l.073.024A5.574,5.574,0,0,1,64.659,89.7l1.751,2.915a4.606,4.606,0,0,0,7.9,0L76.059,89.7a5.574,5.574,0,0,1,3.371-2.459l.081-.024a5.552,5.552,0,0,1,4.185.44l2.972,1.653a4.607,4.607,0,0,0,6.84-3.957l.057-3.428a5.575,5.575,0,0,1,1.7-3.827l.033-.033a5.565,5.565,0,0,1,3.827-1.7l3.428-.057a4.61,4.61,0,0,0,3.957-6.84L104.86,66.5a5.555,5.555,0,0,1-.44-4.185c.008-.025.016-.056.024-.081a5.574,5.574,0,0,1,2.459-3.371l2.915-1.751a4.606,4.606,0,0,0,0-7.9L106.9,47.458a5.574,5.574,0,0,1-2.459-3.371c-.008-.025-.016-.056-.024-.081a5.552,5.552,0,0,1,.44-4.185l1.653-2.972a4.607,4.607,0,0,0-3.957-6.84l-3.428-.057a5.575,5.575,0,0,1-3.827-1.7l-.033-.033a5.565,5.565,0,0,1-1.7-3.827l-.057-3.428A4.61,4.61,0,0,0,86.669,17L83.7,18.657a5.555,5.555,0,0,1-4.185.44l-.081-.024a5.59,5.59,0,0,1-3.371-2.459L74.308,13.7a4.56,4.56,0,0,0-3.949-2.231ZM87.035,40.65a4.169,4.169,0,0,1,2.948,7.117L70.97,66.781a4.168,4.168,0,0,1-5.9,0L54.847,56.553a4.169,4.169,0,1,1,5.9-5.9l7.28,7.28L84.088,41.872a4.154,4.154,0,0,1,2.948-1.221Zm-46.911,45-9.2,22.042,16.163-1.417,10.765,12.662,8.924-21.375A12.8,12.8,0,0,1,59.26,91.81l-.432-.717L58.1,91.5a12.9,12.9,0,0,1-17.979-5.847Zm60.468,0A12.881,12.881,0,0,1,82.614,91.5l-.725-.407-.432.717a12.825,12.825,0,0,1-7.524,5.757l8.933,21.375,10.765-12.654,16.163,1.409Z" transform="translate(-28.672 -11.467)" fill="#6b30ff"/>
  </g>
</svg>
