<svg xmlns="http://www.w3.org/2000/svg" width="31.115" height="31.115" viewBox="0 0 31.115 31.115"><path d="M0,31.115V0H31.115V31.115Z" fill="none"/><g transform="translate(1.296 2.593)"><path d="M18.835,14.333A11.665,11.665,0,0,0,17.49,37.586a3.837,3.837,0,0,1,.243-.58l.39-.668,6.427-11.02a3.889,3.889,0,0,1,2.988-1.881,3.61,3.61,0,0,1,.375-.048,3.762,3.762,0,0,1,.846.111,4.012,4.012,0,0,1,1.605.8,11.674,11.674,0,0,0-11.529-9.966Zm0,5.186a1.3,1.3,0,0,1,1.3,1.3V26a1.3,1.3,0,0,1-.38.917l-2.973,2.973a1.3,1.3,0,0,1-1.833-1.833l2.593-2.593V20.816a1.3,1.3,0,0,1,1.3-1.3Zm9.075,6.462a1.283,1.283,0,0,0-1.119.643L19.972,38.313a1.3,1.3,0,0,0,1.119,1.95H34.729a1.3,1.3,0,0,0,1.119-1.95L29.029,26.624a1.283,1.283,0,0,0-1.119-.643Zm0,3.91a1.3,1.3,0,0,1,1.3,1.3V33.78a1.3,1.3,0,1,1-2.593,0V31.187A1.3,1.3,0,0,1,27.91,29.891Zm0,6.482a1.3,1.3,0,1,1-1.3,1.3A1.3,1.3,0,0,1,27.91,36.373Z" transform="translate(-7.167 -14.333)" fill="#ff4133"/></g></svg>