<svg xmlns="http://www.w3.org/2000/svg" width="33" height="33" viewBox="0 0 33 33"><path d="M0,33V0H33V33Z" fill="none"/><g transform="translate(2.092 4.125)"><path d="M39.388,42.745l-12.1-20.123a2.312,2.312,0,0,0-3.964,0l-12.1,20.125a2.314,2.314,0,0,0,1.983,3.5H37.407a2.312,2.312,0,0,0,1.981-3.5ZM26,42.125H24.622a.688.688,0,0,1-.687-.687V40.062a.688.688,0,0,1,.688-.687H26a.688.688,0,0,1,.688.687v1.375A.688.688,0,0,1,26,42.125Zm-.687-5.5h0a1.376,1.376,0,0,1-1.375-1.375V31.125A1.376,1.376,0,0,1,25.31,29.75h0a1.376,1.376,0,0,1,1.375,1.375V35.25A1.376,1.376,0,0,1,25.31,36.625Z" transform="translate(-10.901 -21.5)" fill="#fdcc04"/></g></svg>